<svg xmlns="http://www.w3.org/2000/svg" width="225" height="225" viewBox="0 0 225 225" version="1.1"><path d="M 83.033 37.005 C 53.826 55.632, 55.865 54.990, 50.954 47.100 L 48.215 42.699 45.740 46.600 C 42.691 51.403, 38.770 55.361, 34.357 58.089 C 32.510 59.230, 31 60.479, 31 60.866 C 31 61.253, 32.350 62.366, 34 63.341 C 35.650 64.316, 36.983 65.425, 36.962 65.807 C 36.941 66.188, 31.991 69.577, 25.962 73.337 L 15 80.174 15 97.600 L 15 115.025 18.750 112.653 C 20.812 111.349, 24.726 108.868, 27.446 107.141 C 30.166 105.413, 32.753 104, 33.196 104 C 33.638 104, 34 126.275, 34 153.500 L 34 203 110 203 L 186 203 186 182.650 L 186 162.301 188.900 157.983 C 190.495 155.608, 194.370 151.975, 197.511 149.910 L 203.223 146.154 199.348 144.178 C 194.917 141.917, 190.545 137.854, 187.859 133.500 C 186.302 130.977, 186.007 128.393, 186.004 117.250 C 186.002 109.963, 186.362 104, 186.804 104 C 187.247 104, 189.834 105.413, 192.554 107.141 C 195.274 108.868, 199.188 111.349, 201.250 112.653 L 205 115.025 205 97.589 L 205 80.153 185.250 67.691 C 174.387 60.837, 153.002 47.303, 137.727 37.615 C 122.451 27.927, 109.851 20.028, 109.727 20.062 C 109.602 20.096, 97.590 27.720, 83.033 37.005 M 89.956 38.260 C 79.255 45.034, 68.363 51.909, 65.752 53.538 C 63.140 55.167, 61.003 56.756, 61.002 57.069 C 61.001 57.381, 62.443 58.320, 64.206 59.156 L 67.412 60.674 62.925 63.304 C 57.462 66.506, 53.917 70.128, 50.731 75.767 L 48.320 80.034 45.201 75.017 C 43.486 72.258, 41.557 70, 40.914 70 C 40.272 70, 35.316 72.813, 29.901 76.250 L 20.056 82.500 20.028 94.309 C 20.006 103.490, 20.278 105.953, 21.250 105.379 C 21.938 104.972, 41.926 92.345, 65.669 77.320 C 89.412 62.294, 109.343 50, 109.959 50 C 110.576 50, 130.525 62.296, 154.291 77.324 C 178.056 92.352, 198.063 104.978, 198.750 105.383 C 199.721 105.954, 199.995 103.486, 199.979 94.309 L 199.958 82.500 156.092 54.762 C 131.966 39.506, 111.593 26.781, 110.820 26.484 C 110.044 26.187, 100.686 31.468, 89.956 38.260 M 43.779 56.195 L 39.057 61.088 43.645 65.485 L 48.233 69.881 53.093 65.097 L 57.953 60.313 55.540 59.022 C 54.213 58.311, 52.086 56.284, 50.814 54.516 L 48.500 51.301 43.779 56.195 M 73.750 77.775 L 38 100.480 38 149.240 L 38 198 68.426 198 L 98.851 198 99.176 166.226 L 99.500 134.451 102.810 127.731 C 107.945 117.305, 115.316 112.980, 127.876 113.022 C 139.499 113.060, 148.276 118.777, 152.002 128.736 C 153.846 133.664, 154 136.536, 154 166.038 L 154 198 168 198 L 182 198 182 179.312 C 182 157.748, 181.853 157.312, 172.266 150.389 C 166.916 146.526, 166.895 146.490, 169.112 145 C 170.339 144.175, 173.741 141.206, 176.671 138.402 L 182 133.304 181.999 116.902 L 181.998 100.500 146.093 77.750 C 126.345 65.237, 110.033 55.016, 109.844 55.035 C 109.655 55.054, 93.412 65.287, 73.750 77.775 M 122.326 117.147 C 114.431 118.514, 108.668 123.035, 105.303 130.500 C 103.712 134.030, 103.463 138.231, 103.187 166.250 L 102.873 198 126.437 198 L 150 198 150.069 193.750 C 150.107 191.412, 150.083 176.900, 150.016 161.500 C 149.897 134.345, 149.823 133.344, 147.536 128.323 C 143.564 119.603, 133.613 115.191, 122.326 117.147 M 54 140 L 54 161 67.500 161 L 81 161 81 140 L 81 119 67.500 119 L 54 119 54 140 M 57.667 122.667 C 57.300 123.033, 57 126.408, 57 130.167 L 57 137 67.500 137 L 78 137 78 129.500 L 78 122 68.167 122 C 62.758 122, 58.033 122.300, 57.667 122.667 M 179.882 141.912 L 175.380 146.526 180.001 151.013 L 184.623 155.500 189.112 150.993 L 193.601 146.486 188.993 141.892 L 184.385 137.298 179.882 141.912 M 57.208 149.750 L 57.500 157.500 67.500 157.500 L 77.500 157.500 77.792 149.750 L 78.084 142 67.500 142 L 56.916 142 57.208 149.750 M 109.200 156.200 C 107.657 157.743, 107.657 161.257, 109.200 162.800 C 111.037 164.637, 114.808 164.228, 115.965 162.066 C 117.371 159.438, 117.271 158.414, 115.429 156.571 C 113.557 154.700, 110.861 154.539, 109.200 156.200 M 111.096 157.941 C 109.585 158.875, 110.281 162, 112 162 C 113.464 162, 114.466 159.066, 113.374 157.974 C 112.873 157.473, 111.877 157.458, 111.096 157.941" stroke="none" fill="#0e0907" fill-rule="evenodd"/><path d="M 89.956 38.260 C 79.255 45.034, 68.363 51.909, 65.752 53.538 C 63.140 55.167, 61.003 56.756, 61.002 57.069 C 61.001 57.381, 62.443 58.320, 64.206 59.156 L 67.412 60.674 62.925 63.304 C 57.462 66.506, 53.917 70.128, 50.731 75.767 L 48.320 80.034 45.201 75.017 C 43.486 72.258, 41.557 70, 40.914 70 C 40.272 70, 35.316 72.813, 29.901 76.250 L 20.056 82.500 20.028 94.309 C 20.006 103.490, 20.278 105.953, 21.250 105.379 C 21.938 104.972, 41.926 92.345, 65.669 77.320 C 89.412 62.294, 109.343 50, 109.959 50 C 110.576 50, 130.525 62.296, 154.291 77.324 C 178.056 92.352, 198.063 104.978, 198.750 105.383 C 199.721 105.954, 199.995 103.486, 199.979 94.309 L 199.958 82.500 156.092 54.762 C 131.966 39.506, 111.593 26.781, 110.820 26.484 C 110.044 26.187, 100.686 31.468, 89.956 38.260 M 43.779 56.195 L 39.057 61.088 43.645 65.485 L 48.233 69.881 53.093 65.097 L 57.953 60.313 55.540 59.022 C 54.213 58.311, 52.086 56.284, 50.814 54.516 L 48.500 51.301 43.779 56.195 M 73.750 77.775 L 38 100.480 38 149.240 L 38 198 68.426 198 L 98.851 198 99.176 166.226 L 99.500 134.451 102.810 127.731 C 107.945 117.305, 115.316 112.980, 127.876 113.022 C 139.499 113.060, 148.276 118.777, 152.002 128.736 C 153.846 133.664, 154 136.536, 154 166.038 L 154 198 168 198 L 182 198 182 179.312 C 182 157.748, 181.853 157.312, 172.266 150.389 C 166.916 146.526, 166.895 146.490, 169.112 145 C 170.339 144.175, 173.741 141.206, 176.671 138.402 L 182 133.304 181.999 116.902 L 181.998 100.500 146.093 77.750 C 126.345 65.237, 110.033 55.016, 109.844 55.035 C 109.655 55.054, 93.412 65.287, 73.750 77.775 M 33.079 106.583 C 33.127 107.748, 33.364 107.985, 33.683 107.188 C 33.972 106.466, 33.936 105.603, 33.604 105.271 C 33.272 104.939, 33.036 105.529, 33.079 106.583 M 122.326 117.147 C 114.431 118.514, 108.668 123.035, 105.303 130.500 C 103.712 134.030, 103.463 138.231, 103.187 166.250 L 102.873 198 126.437 198 L 150 198 150.069 193.750 C 150.107 191.412, 150.083 176.900, 150.016 161.500 C 149.897 134.345, 149.823 133.344, 147.536 128.323 C 143.564 119.603, 133.613 115.191, 122.326 117.147 M 54 140 L 54 161 67.500 161 L 81 161 81 140 L 81 119 67.500 119 L 54 119 54 140 M 57.667 122.667 C 57.300 123.033, 57 126.408, 57 130.167 L 57 137 67.500 137 L 78 137 78 129.500 L 78 122 68.167 122 C 62.758 122, 58.033 122.300, 57.667 122.667 M 33.195 132.500 C 33.215 134.150, 33.439 134.704, 33.693 133.731 C 33.947 132.758, 33.930 131.408, 33.656 130.731 C 33.382 130.054, 33.175 130.850, 33.195 132.500 M 179.882 141.912 L 175.380 146.526 180.001 151.013 L 184.623 155.500 189.112 150.993 L 193.601 146.486 188.993 141.892 L 184.385 137.298 179.882 141.912 M 33.437 165 C 33.437 179.575, 33.577 185.537, 33.747 178.250 C 33.918 170.963, 33.918 159.037, 33.747 151.750 C 33.577 144.463, 33.437 150.425, 33.437 165 M 57.208 149.750 L 57.500 157.500 67.500 157.500 L 77.500 157.500 77.792 149.750 L 78.084 142 67.500 142 L 56.916 142 57.208 149.750 M 109.200 156.200 C 107.657 157.743, 107.657 161.257, 109.200 162.800 C 111.037 164.637, 114.808 164.228, 115.965 162.066 C 117.371 159.438, 117.271 158.414, 115.429 156.571 C 113.557 154.700, 110.861 154.539, 109.200 156.200 M 111.096 157.941 C 109.585 158.875, 110.281 162, 112 162 C 113.464 162, 114.466 159.066, 113.374 157.974 C 112.873 157.473, 111.877 157.458, 111.096 157.941 M 33.195 195.500 C 33.215 197.150, 33.439 197.704, 33.693 196.731 C 33.947 195.758, 33.930 194.408, 33.656 193.731 C 33.382 193.054, 33.175 193.850, 33.195 195.500" stroke="none" fill="#f0c09f" fill-rule="evenodd"/></svg>