<svg xmlns="http://www.w3.org/2000/svg" width="360" height="360" viewBox="0 0 360 360" version="1.1"><path d="M 149.123 22.903 C 147.984 23.624, 147.956 24.650, 148.962 28.840 C 150.277 34.323, 149.850 36, 147.141 36 C 143.541 36, 142.981 38.078, 145.559 41.873 C 148.238 45.815, 148.787 51.678, 146.817 55.316 C 146.166 56.517, 144.854 60.200, 143.901 63.500 C 142.948 66.800, 140.553 73.325, 138.579 78 C 135.501 85.290, 135.075 87.219, 135.586 91.552 C 136.048 95.476, 135.826 96.900, 134.591 97.925 C 132.600 99.577, 132.529 103.365, 134.459 104.966 C 135.462 105.799, 140.756 106.176, 151.418 106.176 L 166.919 106.176 167.258 113.838 L 167.598 121.500 167.799 113.309 C 167.909 108.804, 168.450 104.840, 169 104.500 C 170.643 103.485, 170.171 98.280, 168.373 97.590 C 167.045 97.080, 166.867 96.064, 167.400 92.042 C 168.086 86.870, 166.037 80.196, 157.376 59.392 C 155.054 53.815, 154 49.704, 154 46.222 C 154 41.409, 154.148 41.126, 157 40.500 C 160.847 39.655, 160.883 37.127, 157.058 36.362 C 154.320 35.814, 154.072 35.381, 153.485 30.137 C 152.531 21.598, 152.158 20.980, 149.123 22.903 M 137 95 L 137 98 151.500 98 L 166 98 166 95 L 166 92 151.500 92 L 137 92 137 95 M 147.500 113.124 C 146.400 113.668, 143.094 117.800, 140.153 122.306 C 121.948 150.204, 112.240 164.181, 98 183 C 93.214 189.325, 86.961 197.875, 84.104 202 C 81.247 206.125, 77.082 212.134, 74.848 215.352 C 72.614 218.571, 70.695 222.524, 70.584 224.138 C 70.362 227.345, 72.216 229.602, 74.111 228.432 C 74.869 227.963, 75.047 228.115, 74.595 228.845 C 74.101 229.645, 75.118 230, 77.903 230 L 81.925 230 82.255 239.250 L 82.585 248.500 82.792 238.160 C 82.986 228.529, 82.846 227.692, 80.750 225.944 L 78.500 224.067 82.250 224.033 C 86.412 223.996, 87.399 222.313, 83.550 221.816 L 81.099 221.500 83.800 217.290 C 86.233 213.497, 109.165 181.144, 131.850 149.500 C 141.800 135.620, 150.943 123.985, 151.863 124.033 C 152.888 124.087, 161.877 136.153, 188.311 172.956 C 213.507 208.036, 224 223.334, 224 224.985 C 224 225.489, 223.361 226.260, 222.580 226.700 C 221.798 227.140, 220.964 228.625, 220.725 230 C 220.487 231.375, 220.484 231.938, 220.719 231.250 C 220.964 230.535, 222.827 230, 225.073 230 C 227.233 230, 229 229.600, 229 229.111 C 229 228.622, 229.787 228.285, 230.750 228.361 C 231.844 228.448, 232.449 227.848, 232.363 226.761 C 232.288 225.804, 232.625 225.268, 233.113 225.570 C 233.601 225.871, 234 225.551, 234 224.858 C 234 223.198, 213.836 193.330, 203.717 180 C 188.608 160.099, 178.906 146.452, 168.104 129.909 C 162.146 120.784, 156.499 113.022, 155.554 112.659 C 153.192 111.753, 149.889 111.943, 147.500 113.124 M 153.202 156.500 L 153.084 163.500 154.959 160 C 156.445 157.225, 156.552 156.435, 155.476 156.188 C 154.729 156.016, 153.938 154.441, 153.719 152.688 C 153.499 150.935, 153.267 152.650, 153.202 156.500 M 147.310 153.480 L 145.119 154.625 147.616 158.813 C 148.990 161.116, 150.223 163, 150.357 163 C 150.714 163, 150.187 152.839, 149.816 152.567 C 149.642 152.440, 148.514 152.851, 147.310 153.480 M 140.751 159.395 C 139.861 161.262, 139.380 163.737, 139.683 164.895 C 140.149 166.680, 140.992 167, 145.215 167 L 150.196 167 148.044 163.750 C 146.861 161.963, 145.394 159.488, 144.786 158.250 C 143.296 155.221, 142.655 155.403, 140.751 159.395 M 156.798 161.095 L 153.340 166.500 159.286 166.801 C 162.556 166.966, 165.465 166.868, 165.751 166.583 C 166.445 165.888, 164.373 161.079, 162.094 158.095 L 160.257 155.689 156.798 161.095 M 169.158 167 C 169.158 168.375, 169.385 168.938, 169.662 168.250 C 169.940 167.563, 169.940 166.438, 169.662 165.750 C 169.385 165.063, 169.158 165.625, 169.158 167 M 140.197 169.680 C 139.217 170.072, 139.341 170.568, 140.697 171.675 C 141.689 172.485, 141.938 172.863, 141.250 172.515 C 140.466 172.118, 139.944 172.649, 139.850 173.941 C 139.767 175.073, 139.655 176.563, 139.600 177.250 C 139.545 177.938, 139.063 178.813, 138.529 179.196 C 136.849 180.399, 138.679 181.181, 144.357 181.687 C 149.782 182.169, 149.854 182.140, 150.175 179.338 C 150.354 177.777, 150.340 174.813, 150.145 172.750 C 149.796 169.062, 149.722 169.001, 145.645 169.079 C 143.365 169.122, 140.914 169.393, 140.197 169.680 M 153 175.548 L 153 182.095 159.250 181.798 L 165.500 181.500 165.830 175.250 L 166.160 169 159.580 169 L 153 169 153 175.548 M 147 176 C 147 176.550, 147.450 177, 148 177 C 148.550 177, 149 176.550, 149 176 C 149 175.450, 148.550 175, 148 175 C 147.450 175, 147 175.450, 147 176 M 154 176 C 154 176.550, 154.450 177, 155 177 C 155.550 177, 156 176.550, 156 176 C 156 175.450, 155.550 175, 155 175 C 154.450 175, 154 175.450, 154 176 M 138.333 190.500 C 138.333 196.416, 138.520 197.001, 140.417 197.011 C 141.563 197.017, 144.149 197.295, 146.163 197.628 L 149.827 198.234 150.163 191.115 L 150.500 183.995 144.417 183.998 L 138.333 184 138.333 190.500 M 153 190.930 L 153 197.860 159.250 197.680 L 165.500 197.500 165.796 190.750 L 166.091 184 159.546 184 L 153 184 153 190.930 M 147 191 C 147 191.550, 147.450 192, 148 192 C 148.550 192, 149 191.550, 149 191 C 149 190.450, 148.550 190, 148 190 C 147.450 190, 147 190.450, 147 191 M 154.192 191.075 C 154.389 191.666, 154.978 192.150, 155.500 192.150 C 156.022 192.150, 156.611 191.666, 156.808 191.075 C 157.005 190.484, 156.417 190, 155.500 190 C 154.583 190, 153.995 190.484, 154.192 191.075 M 139.500 201 C 138.944 201.899, 140.257 202.433, 142.250 202.118 C 142.662 202.053, 143 203.152, 143 204.559 C 143 205.966, 143.412 206.864, 143.915 206.553 C 144.418 206.242, 145.057 206.553, 145.336 207.244 C 145.738 208.242, 145.858 208.243, 145.921 207.250 C 145.964 206.563, 146.675 206, 147.500 206 C 149.308 206, 149.433 207.167, 147.800 208.800 C 146.953 209.647, 146.932 210, 147.727 210 C 148.346 210, 149.059 210.787, 149.311 211.750 C 149.562 212.713, 149.820 210.463, 149.884 206.750 L 150 200 145.059 200 C 142.341 200, 139.840 200.450, 139.500 201 M 153 206.338 L 153 212.676 156.750 212.763 C 160 212.839, 160.191 212.728, 158.186 211.934 C 156.913 211.430, 156.123 210.610, 156.430 210.113 C 156.737 209.616, 156.316 208.952, 155.494 208.636 C 152.119 207.341, 154.344 206.122, 159.750 206.305 L 165.500 206.500 165.813 203.250 L 166.127 200 159.563 200 L 153 200 153 206.338 M 144 212 L 140.500 212.737 143.691 212.868 C 145.446 212.941, 147.160 212.550, 147.500 212 C 147.840 211.450, 147.979 211.059, 147.809 211.132 C 147.639 211.204, 145.925 211.595, 144 212 M 126.473 217 C 123.733 217.461, 123.283 218.166, 120.724 226 C 119.198 230.675, 117.682 236.353, 117.356 238.619 L 116.764 242.738 121.276 243.414 C 126.516 244.200, 177.814 243.872, 183 243.020 C 187.083 242.349, 187.110 241.925, 183.844 230 C 180.665 218.398, 180.002 217.006, 177.629 216.950 C 162.139 216.584, 128.752 216.617, 126.473 217 M 103.710 221.623 C 101.948 223.386, 103.466 224, 109.583 224 C 114.403 224, 116.056 223.665, 115.754 222.750 C 115.306 221.391, 104.914 220.419, 103.710 221.623 M 188.233 222.200 C 188.521 223.063, 190.572 223.500, 194.333 223.500 C 202.172 223.500, 202.018 221.572, 194.150 221.200 C 189.286 220.970, 187.901 221.204, 188.233 222.200 M 89 223 C 89 223.550, 91.475 224, 94.500 224 C 97.525 224, 100 223.550, 100 223 C 100 222.450, 97.525 222, 94.500 222 C 91.475 222, 89 222.450, 89 223 M 205 223 C 205 223.550, 207.025 224, 209.500 224 C 211.975 224, 214 223.550, 214 223 C 214 222.450, 211.975 222, 209.500 222 C 207.025 222, 205 222.450, 205 223 M 218 223 C 218 223.550, 218.900 224, 220 224 C 221.100 224, 222 223.550, 222 223 C 222 222.450, 221.100 222, 220 222 C 218.900 222, 218 222.450, 218 223 M 220.692 272.189 C 220.085 290.705, 220.188 297.894, 221.100 300.939 L 222.317 305 239.408 305.168 C 248.809 305.261, 264.037 305.374, 273.249 305.418 L 289.997 305.500 290.215 318 L 290.432 330.500 290.747 318.250 L 291.062 306 294.562 306 C 296.684 306, 298.280 305.434, 298.614 304.562 C 299.341 302.668, 288.766 262.818, 286.699 259.664 C 285.134 257.274, 284.696 257.202, 267.299 256.472 C 257.509 256.062, 243.337 256.018, 235.805 256.375 L 222.111 257.023 221.805 252.262 C 221.637 249.643, 221.136 258.610, 220.692 272.189 M 103.589 256.077 C 102.165 257.769, 101 259.570, 101 260.080 C 101 260.589, 102.361 263.142, 104.025 265.753 L 107.050 270.500 106.827 261.750 C 106.705 256.938, 106.508 253, 106.391 253 C 106.274 253, 105.013 254.385, 103.589 256.077 M 191.615 255.465 C 189.815 258.212, 189.629 259, 190.781 259 C 191.210 259, 192.071 257.650, 192.694 256 C 194.070 252.355, 193.755 252.199, 191.615 255.465 M 197 253.711 C 197 254.285, 197.787 255.373, 198.750 256.128 C 200.369 257.397, 200.390 257.350, 199.033 255.500 C 198.226 254.400, 197.439 253.313, 197.283 253.083 C 197.127 252.854, 197 253.137, 197 253.711 M 109 263.196 L 109 270.392 112 265.661 C 115.522 260.108, 115.564 259.820, 113.171 257.655 C 109.769 254.576, 109 255.597, 109 263.196 M 192.090 259.390 C 191.314 260.325, 190.040 260.846, 189.258 260.546 C 188.290 260.174, 188.549 261.195, 190.073 263.750 C 193.935 270.229, 194.542 270.445, 194.206 265.219 C 193.712 257.546, 193.684 257.467, 192.090 259.390 M 196.747 263.780 C 196.474 266.926, 196.363 269.631, 196.500 269.791 C 197.009 270.387, 201.795 261.477, 201.351 260.759 C 201.097 260.347, 200.068 259.572, 199.066 259.035 C 197.422 258.155, 197.194 258.621, 196.747 263.780 M 97.620 264.458 C 95.901 267.081, 95.508 269.078, 96.750 268.882 C 99.217 268.492, 99.126 269.261, 96.500 271 L 93.500 272.987 99.809 272.993 C 104.594 272.998, 105.935 272.698, 105.362 271.750 C 104.946 271.063, 103.398 268.584, 101.922 266.243 L 99.239 261.986 97.620 264.458 M 185.722 263.956 C 185.427 265.082, 185.595 265.751, 186.093 265.442 C 187.455 264.601, 187.184 268.381, 185.750 270.225 C 185.063 271.108, 183.600 272.042, 182.500 272.300 C 181.400 272.557, 183.313 272.820, 186.750 272.884 C 190.188 272.948, 193 272.757, 193 272.461 C 193 272.164, 191.483 269.668, 189.629 266.915 C 186.744 262.631, 186.180 262.204, 185.722 263.956 M 114.615 265.500 C 113.727 266.875, 112.273 269.125, 111.385 270.500 L 109.770 273 115.135 272.864 C 118.086 272.789, 119.461 272.529, 118.192 272.287 C 116.334 271.932, 116.112 271.570, 117.054 270.436 C 117.697 269.660, 117.954 268.321, 117.623 267.461 C 117.293 266.600, 117.426 266.145, 117.918 266.449 C 118.411 266.754, 118.578 266.102, 118.290 265.001 C 117.594 262.339, 116.567 262.478, 114.615 265.500 M 199.760 269.038 L 197.019 273 203.760 272.900 C 208.655 272.828, 209.816 272.582, 208 272 C 206.625 271.560, 205.950 271.126, 206.500 271.036 C 207.050 270.947, 206.436 270.447, 205.136 269.927 C 203.434 269.245, 202.918 268.423, 203.292 266.990 C 204.096 263.916, 202.770 264.685, 199.760 269.038 M 82.328 275.500 C 82.333 279.350, 82.513 280.802, 82.730 278.728 C 82.946 276.653, 82.943 273.503, 82.722 271.728 C 82.501 269.952, 82.324 271.650, 82.328 275.500 M 94.131 282 L 94.046 288 100.523 288 L 107 288 107 282 L 107 276 100.607 276 L 94.215 276 94.131 282 M 109 282 L 109 288 115.500 288 C 120.900 288, 122 287.718, 122 286.333 C 122 285.417, 121.715 284.951, 121.367 285.299 C 121.019 285.647, 119.858 284.818, 118.787 283.457 C 117.716 282.095, 116.383 281.264, 115.824 281.609 C 115.245 281.967, 114.957 281.471, 115.154 280.457 C 115.344 279.478, 117.075 278.109, 119 277.415 C 122.448 276.171, 122.400 276.151, 115.750 276.076 L 109 276 109 282 M 181.015 277.895 C 181.024 278.821, 181.341 279.077, 181.765 278.500 C 182.169 277.950, 183.080 277.382, 183.789 277.237 C 185.393 276.910, 184.693 284.460, 182.922 286.594 C 181.941 287.776, 182.731 288, 187.878 288 L 194 288 194 281.966 L 194 275.932 187.500 276.111 C 182.267 276.255, 181.003 276.603, 181.015 277.895 M 196.840 282.026 L 197.180 288.055 203.090 287.878 L 209 287.701 209.014 284.100 C 209.021 282.120, 209.299 279.488, 209.630 278.250 C 210.213 276.077, 209.999 276, 203.367 275.998 L 196.500 275.996 196.840 282.026 M 205.851 278.251 C 206.608 279.008, 207.337 279.063, 207.988 278.412 C 208.639 277.761, 208.247 277.369, 206.839 277.263 C 205.229 277.142, 204.985 277.385, 205.851 278.251 M 103.553 281.915 C 103.231 282.436, 103.394 283.125, 103.915 283.447 C 104.436 283.769, 105.125 283.606, 105.447 283.085 C 105.769 282.564, 105.606 281.875, 105.085 281.553 C 104.564 281.231, 103.875 281.394, 103.553 281.915 M 110.469 282.050 C 109.519 283.588, 110.820 284.580, 112.104 283.296 C 112.822 282.578, 112.839 282.019, 112.156 281.597 C 111.596 281.251, 110.837 281.455, 110.469 282.050 M 191 282.500 C 191 283.325, 191.450 284, 192 284 C 192.550 284, 193 283.325, 193 282.500 C 193 281.675, 192.550 281, 192 281 C 191.450 281, 191 281.675, 191 282.500 M 198 282.441 C 198 283.298, 198.450 284, 199 284 C 199.550 284, 200 283.577, 200 283.059 C 200 282.541, 199.550 281.840, 199 281.500 C 198.450 281.160, 198 281.584, 198 282.441 M 205 282.378 C 205 283.135, 205.675 284.315, 206.500 285 C 208.090 286.320, 208.452 285.341, 207.393 282.582 C 206.646 280.636, 205 280.495, 205 282.378 M 99.750 290.800 C 94.145 291.092, 94 291.173, 94 293.991 C 94 295.581, 94.450 297.160, 95 297.500 C 95.550 297.840, 96 298.991, 96 300.059 C 96 301.127, 95.550 302, 95 302 C 94.450 302, 94 302.450, 94 303 C 94 303.564, 96.833 304, 100.500 304 L 107 304 107 297.559 C 107 294.016, 106.662 290.979, 106.250 290.809 C 105.838 290.639, 102.912 290.635, 99.750 290.800 M 109.413 290.917 C 109.186 291.146, 109 294.183, 109 297.667 L 109 304 115.500 304 L 122 304 122 297.589 L 122 291.178 115.913 290.839 C 112.566 290.652, 109.641 290.688, 109.413 290.917 M 187.500 290.913 C 182.083 291.549, 182.046 291.598, 181.244 299.250 L 180.746 304 187.373 304 L 194 304 194 297 C 194 293.150, 193.662 290.073, 193.250 290.163 C 192.838 290.253, 190.250 290.590, 187.500 290.913 M 196.998 297.250 L 197 304 203.500 304 C 207.585 304, 210 303.589, 210 302.893 C 210 302.284, 209.325 302.045, 208.500 302.362 C 207.675 302.678, 207 302.515, 207 302 C 207 301.485, 206.213 301.316, 205.250 301.626 C 203.904 302.059, 203.816 301.963, 204.870 301.211 C 205.662 300.646, 206.215 298.527, 206.183 296.178 C 206.141 293.166, 206.561 292.021, 207.814 291.729 C 208.741 291.512, 206.687 291.147, 203.248 290.918 L 196.996 290.500 196.998 297.250 M 103.583 296.866 C 103.152 297.563, 103.070 298.403, 103.400 298.733 C 104.295 299.628, 105.271 298.312, 104.787 296.862 C 104.449 295.846, 104.213 295.846, 103.583 296.866 M 111 297.441 C 111 298.298, 111.450 299, 112 299 C 112.550 299, 113 298.577, 113 298.059 C 113 297.541, 112.550 296.840, 112 296.500 C 111.450 296.160, 111 296.584, 111 297.441 M 190.597 296.844 C 190.251 297.404, 190.455 298.163, 191.050 298.531 C 192.588 299.481, 193.580 298.180, 192.296 296.896 C 191.578 296.178, 191.019 296.161, 190.597 296.844 M 198.639 296.694 C 197.513 297.820, 197.954 299, 199.500 299 C 200.325 299, 201 298.577, 201 298.059 C 201 296.798, 199.438 295.895, 198.639 296.694 M 83.286 303.500 C 83.294 306.250, 83.488 307.256, 83.718 305.736 C 83.947 304.216, 83.941 301.966, 83.704 300.736 C 83.467 299.506, 83.279 300.750, 83.286 303.500 M 99.750 306.739 C 94.039 307.097, 91.499 308.615, 96.736 308.539 C 98.988 308.507, 99.680 309.120, 100.644 312 C 101.577 314.788, 101.958 315.144, 102.515 313.750 C 103.554 311.149, 105.008 311.633, 104.771 314.500 C 104.570 316.929, 104.347 317, 96.982 317 C 89.587 317, 86.694 318.038, 87.589 320.372 C 87.894 321.169, 93.523 321.412, 106.760 321.202 C 127.654 320.870, 128.835 320.711, 126.990 318.488 C 126.177 317.508, 123.919 317, 120.378 317 C 116.124 317, 115 316.667, 115 315.406 C 115 314.530, 115.900 313.577, 117 313.290 C 118.100 313.002, 119 312.144, 119 311.383 C 119 310.623, 119.627 310, 120.393 310 C 121.159 310, 122.045 309.325, 122.362 308.500 C 122.834 307.270, 121.863 307, 116.969 307 C 113.686 307, 110.662 306.887, 110.250 306.750 C 109.838 306.613, 109.436 308.637, 109.357 311.250 C 109.279 313.863, 109.616 316, 110.107 316 C 110.598 316, 111 315.063, 111 313.917 C 111 311.905, 113.061 311.631, 113.671 313.563 C 114.230 315.332, 112.472 316.850, 109.487 317.175 L 106.500 317.500 106.806 311.750 C 106.975 308.587, 106.750 306.085, 106.306 306.189 C 105.863 306.293, 102.912 306.541, 99.750 306.739 M 196.999 312.250 C 197 316.695, 196.660 318, 195.500 318 C 194.348 318, 194 316.722, 194 312.500 L 194 307 187.250 307.030 C 182.176 307.053, 180.935 307.314, 182.250 308.080 C 183.213 308.641, 184 309.554, 184 310.109 C 184 310.664, 183.553 310.842, 183.007 310.504 C 182.433 310.150, 182.101 310.950, 182.221 312.398 C 182.335 313.777, 182.616 314.717, 182.846 314.488 C 183.075 314.258, 184.097 314.517, 185.117 315.063 C 186.795 315.961, 186.877 315.806, 185.978 313.442 C 185.220 311.449, 185.283 310.928, 186.242 311.247 C 186.934 311.478, 187.556 312.192, 187.625 312.833 C 187.694 313.475, 187.806 314.450, 187.875 315 C 188.111 316.889, 190 316, 190 314 C 190 312.900, 190.423 312, 190.941 312 C 192.609 312, 193.122 313.904, 192.011 315.979 C 190.814 318.215, 187.067 318.667, 185.200 316.800 C 184.320 315.920, 184 315.907, 184 316.754 C 184 317.485, 182.755 317.749, 180.606 317.474 C 176.645 316.967, 173.501 319.445, 176.064 321.053 C 176.854 321.549, 178.400 321.668, 179.500 321.317 C 180.600 320.966, 188.637 320.748, 197.359 320.831 C 206.081 320.915, 213.599 320.748, 214.065 320.460 C 214.531 320.172, 214.698 319.377, 214.436 318.694 C 214.138 317.918, 211.434 317.344, 207.230 317.164 C 200.520 316.876, 197.091 315.281, 198.451 313.080 C 199.397 311.549, 201.264 312.871, 200.600 314.601 C 200.304 315.371, 200.499 316, 201.031 316 C 201.564 316, 202 315.325, 202 314.500 C 202 313.667, 202.889 313, 204 313 C 205.259 313, 206 312.333, 206 311.200 C 206 310.210, 206.496 308.904, 207.102 308.298 C 207.904 307.496, 206.680 307.102, 202.600 306.848 L 196.997 306.500 196.999 312.250 M 235.987 310.108 C 234.189 310.609, 234.955 310.828, 238.750 310.900 C 241.637 310.955, 244 310.826, 244 310.613 C 244 309.802, 238.363 309.447, 235.987 310.108 M 272 310.063 C 272 310.578, 273.875 311, 276.167 311 C 281.102 311, 280.943 310.506, 275.750 309.704 C 273.673 309.384, 272 309.544, 272 310.063 M 235.250 312.662 C 232.983 313.577, 233.890 316, 236.500 316 C 238.333 316, 239 315.467, 239 314 C 239 312.056, 237.808 311.630, 235.250 312.662 M 241 314 C 241 315.467, 241.667 316, 243.500 316 C 245.333 316, 246 315.467, 246 314 C 246 312.533, 245.333 312, 243.500 312 C 241.667 312, 241 312.533, 241 314 M 269.529 312.805 C 267.977 314.357, 269.285 316, 272.073 316 C 274.462 316, 275.072 315.610, 274.810 314.250 C 274.496 312.619, 270.742 311.592, 269.529 312.805 M 276.500 312.834 C 274.943 314.390, 276.237 316.106, 278.750 315.816 C 282.060 315.436, 282.467 312.737, 279.250 312.500 C 278.012 312.409, 276.774 312.559, 276.500 312.834 M 84.320 320 C 84.320 323.575, 84.502 325.038, 84.723 323.250 C 84.945 321.462, 84.945 318.538, 84.723 316.750 C 84.502 314.962, 84.320 316.425, 84.320 320 M 231.195 317.500 C 231.215 319.150, 231.439 319.704, 231.693 318.731 C 231.947 317.758, 231.930 316.408, 231.656 315.731 C 231.382 315.054, 231.175 315.850, 231.195 317.500 M 265.651 317.468 C 265.341 318.275, 265.424 319.144, 265.836 319.399 C 266.248 319.653, 266.650 318.993, 266.730 317.931 C 266.903 315.634, 266.432 315.432, 265.651 317.468 M 248.252 320.500 C 248.263 322.700, 248.468 323.482, 248.707 322.238 C 248.946 320.994, 248.937 319.194, 248.687 318.238 C 248.437 317.282, 248.241 318.300, 248.252 320.500 M 234 320 C 234 321.467, 234.667 322, 236.500 322 C 238.333 322, 239 321.467, 239 320 C 239 318.533, 238.333 318, 236.500 318 C 234.667 318, 234 318.533, 234 320 M 241 320 C 241 321.467, 241.667 322, 243.500 322 C 245.333 322, 246 321.467, 246 320 C 246 318.533, 245.333 318, 243.500 318 C 241.667 318, 241 318.533, 241 320 M 269 320 C 269 321.556, 269.667 322, 272 322 C 274.333 322, 275 321.556, 275 320 C 275 318.444, 274.333 318, 272 318 C 269.667 318, 269 318.444, 269 320 M 276 320.066 C 276 321.729, 276.535 322.071, 278.741 321.816 C 280.395 321.626, 281.615 320.805, 281.815 319.750 C 282.073 318.391, 281.460 318, 279.073 318 C 276.634 318, 276 318.426, 276 320.066 M 234 324 C 234 324.550, 232.848 325, 231.441 325 C 230.034 325, 229.122 325.389, 229.416 325.863 C 230.172 327.087, 246.191 327.227, 248 326.027 C 249.286 325.173, 249.250 325.028, 247.750 325.015 C 246.787 325.007, 246 324.550, 246 324 C 246 322.551, 241.274 322.769, 240.583 324.250 C 240.117 325.250, 239.883 325.250, 239.417 324.250 C 238.726 322.769, 234 322.551, 234 324 M 269 324 C 269 324.550, 268.352 325, 267.559 325 C 266.766 325, 265.845 325.442, 265.511 325.982 C 264.886 326.994, 281.682 327.314, 283.288 326.322 C 284.542 325.547, 280.808 323.068, 278.333 323.032 C 277.142 323.014, 275.940 323.563, 275.662 324.250 C 275.259 325.250, 275.142 325.250, 275.079 324.250 C 274.986 322.771, 269 322.525, 269 324 M 240.750 335.662 C 241.438 335.940, 242.563 335.940, 243.250 335.662 C 243.938 335.385, 243.375 335.158, 242 335.158 C 240.625 335.158, 240.063 335.385, 240.750 335.662 M 246.750 335.662 C 247.438 335.940, 248.563 335.940, 249.250 335.662 C 249.938 335.385, 249.375 335.158, 248 335.158 C 246.625 335.158, 246.063 335.385, 246.750 335.662 M 253.750 335.662 C 254.438 335.940, 255.563 335.940, 256.250 335.662 C 256.938 335.385, 256.375 335.158, 255 335.158 C 253.625 335.158, 253.063 335.385, 253.750 335.662 M 274.750 335.662 C 275.438 335.940, 276.563 335.940, 277.250 335.662 C 277.938 335.385, 277.375 335.158, 276 335.158 C 274.625 335.158, 274.063 335.385, 274.750 335.662" stroke="none" fill="#dadcea" fill-rule="evenodd"/><path d="M 137 95 L 137 98 151.500 98 L 166 98 166 95 L 166 92 151.500 92 L 137 92 137 95 M 136 116.647 C 136 122.423, 136.395 126.874, 136.880 126.574 C 137.364 126.275, 139.498 123.346, 141.623 120.065 C 145.459 114.140, 148.243 112, 152.113 112 C 155.585 112, 157.574 113.706, 161.972 120.458 C 164.317 124.056, 166.407 127, 166.617 127 C 166.828 127, 167 122.315, 167 116.588 L 167 106.176 151.500 106.176 L 136 106.176 136 116.647 M 145.839 130.750 C 142.876 134.463, 136.581 142.900, 131.850 149.500 C 109.165 181.144, 86.233 213.497, 83.800 217.290 L 81.099 221.500 83.550 221.816 C 87.399 222.313, 86.412 223.996, 82.250 224.033 C 78.557 224.066, 78.532 224.093, 80.578 225.804 C 82.598 227.493, 82.657 228.403, 82.686 258.021 C 82.702 274.785, 83.243 296.825, 83.887 307 C 84.532 317.175, 85.218 328.110, 85.412 331.299 C 85.606 334.489, 86.080 337.414, 86.466 337.799 C 86.851 338.185, 116.395 338.500, 152.120 338.500 C 204.306 338.500, 217.231 338.245, 217.876 337.201 C 218.624 335.991, 236.408 335.399, 282.250 335.058 L 290 335 289.999 320.250 L 289.997 305.500 273.249 305.418 C 264.037 305.374, 248.809 305.261, 239.408 305.168 L 222.317 305 221.228 301.250 C 220.494 298.723, 220.287 286.095, 220.593 262.526 C 220.977 233.063, 221.281 227.422, 222.524 226.727 C 223.336 226.272, 224 225.489, 224 224.985 C 224 223.334, 213.507 208.036, 188.311 172.956 C 161.877 136.153, 152.888 124.087, 151.863 124.033 C 151.512 124.015, 148.801 127.037, 145.839 130.750 M 153.202 156.500 L 153.084 163.500 154.959 160 C 156.445 157.225, 156.552 156.435, 155.476 156.188 C 154.729 156.016, 153.938 154.441, 153.719 152.688 C 153.499 150.935, 153.267 152.650, 153.202 156.500 M 147.310 153.480 L 145.119 154.625 147.616 158.813 C 148.990 161.116, 150.223 163, 150.357 163 C 150.714 163, 150.187 152.839, 149.816 152.567 C 149.642 152.440, 148.514 152.851, 147.310 153.480 M 140.751 159.395 C 139.861 161.262, 139.380 163.737, 139.683 164.895 C 140.149 166.680, 140.992 167, 145.215 167 L 150.196 167 148.044 163.750 C 146.861 161.963, 145.394 159.488, 144.786 158.250 C 143.296 155.221, 142.655 155.403, 140.751 159.395 M 156.798 161.095 L 153.340 166.500 159.286 166.801 C 162.556 166.966, 165.465 166.868, 165.751 166.583 C 166.445 165.888, 164.373 161.079, 162.094 158.095 L 160.257 155.689 156.798 161.095 M 169.158 167 C 169.158 168.375, 169.385 168.938, 169.662 168.250 C 169.940 167.563, 169.940 166.438, 169.662 165.750 C 169.385 165.063, 169.158 165.625, 169.158 167 M 140.197 169.680 C 139.217 170.072, 139.341 170.568, 140.697 171.675 C 141.689 172.485, 141.938 172.863, 141.250 172.515 C 140.466 172.118, 139.944 172.649, 139.850 173.941 C 139.767 175.073, 139.655 176.563, 139.600 177.250 C 139.545 177.938, 139.063 178.813, 138.529 179.196 C 136.849 180.399, 138.679 181.181, 144.357 181.687 C 149.782 182.169, 149.854 182.140, 150.175 179.338 C 150.354 177.777, 150.340 174.813, 150.145 172.750 C 149.796 169.062, 149.722 169.001, 145.645 169.079 C 143.365 169.122, 140.914 169.393, 140.197 169.680 M 153 175.548 L 153 182.095 159.250 181.798 L 165.500 181.500 165.830 175.250 L 166.160 169 159.580 169 L 153 169 153 175.548 M 147 176 C 147 176.550, 147.450 177, 148 177 C 148.550 177, 149 176.550, 149 176 C 149 175.450, 148.550 175, 148 175 C 147.450 175, 147 175.450, 147 176 M 154 176 C 154 176.550, 154.450 177, 155 177 C 155.550 177, 156 176.550, 156 176 C 156 175.450, 155.550 175, 155 175 C 154.450 175, 154 175.450, 154 176 M 138.333 190.500 C 138.333 196.416, 138.520 197.001, 140.417 197.011 C 141.563 197.017, 144.149 197.295, 146.163 197.628 L 149.827 198.234 150.163 191.115 L 150.500 183.995 144.417 183.998 L 138.333 184 138.333 190.500 M 153 190.930 L 153 197.860 159.250 197.680 L 165.500 197.500 165.796 190.750 L 166.091 184 159.546 184 L 153 184 153 190.930 M 147 191 C 147 191.550, 147.450 192, 148 192 C 148.550 192, 149 191.550, 149 191 C 149 190.450, 148.550 190, 148 190 C 147.450 190, 147 190.450, 147 191 M 154.192 191.075 C 154.389 191.666, 154.978 192.150, 155.500 192.150 C 156.022 192.150, 156.611 191.666, 156.808 191.075 C 157.005 190.484, 156.417 190, 155.500 190 C 154.583 190, 153.995 190.484, 154.192 191.075 M 139.500 201 C 138.944 201.899, 140.257 202.433, 142.250 202.118 C 142.662 202.053, 143 203.152, 143 204.559 C 143 205.966, 143.412 206.864, 143.915 206.553 C 144.418 206.242, 145.057 206.553, 145.336 207.244 C 145.738 208.242, 145.858 208.243, 145.921 207.250 C 145.964 206.563, 146.675 206, 147.500 206 C 149.308 206, 149.433 207.167, 147.800 208.800 C 146.953 209.647, 146.932 210, 147.727 210 C 148.346 210, 149.059 210.787, 149.311 211.750 C 149.562 212.713, 149.820 210.463, 149.884 206.750 L 150 200 145.059 200 C 142.341 200, 139.840 200.450, 139.500 201 M 153 206.338 L 153 212.676 156.750 212.763 C 160 212.839, 160.191 212.728, 158.186 211.934 C 156.913 211.430, 156.123 210.610, 156.430 210.113 C 156.737 209.616, 156.316 208.952, 155.494 208.636 C 152.119 207.341, 154.344 206.122, 159.750 206.305 L 165.500 206.500 165.813 203.250 L 166.127 200 159.563 200 L 153 200 153 206.338 M 144 212 L 140.500 212.737 143.691 212.868 C 145.446 212.941, 147.160 212.550, 147.500 212 C 147.840 211.450, 147.979 211.059, 147.809 211.132 C 147.639 211.204, 145.925 211.595, 144 212 M 126.473 217 C 123.733 217.461, 123.283 218.166, 120.724 226 C 119.198 230.675, 117.682 236.353, 117.356 238.619 L 116.764 242.738 121.276 243.414 C 126.516 244.200, 177.814 243.872, 183 243.020 C 187.083 242.349, 187.110 241.925, 183.844 230 C 180.665 218.398, 180.002 217.006, 177.629 216.950 C 162.139 216.584, 128.752 216.617, 126.473 217 M 103.710 221.623 C 101.948 223.386, 103.466 224, 109.583 224 C 114.403 224, 116.056 223.665, 115.754 222.750 C 115.306 221.391, 104.914 220.419, 103.710 221.623 M 188.233 222.200 C 188.521 223.063, 190.572 223.500, 194.333 223.500 C 202.172 223.500, 202.018 221.572, 194.150 221.200 C 189.286 220.970, 187.901 221.204, 188.233 222.200 M 89 223 C 89 223.550, 91.475 224, 94.500 224 C 97.525 224, 100 223.550, 100 223 C 100 222.450, 97.525 222, 94.500 222 C 91.475 222, 89 222.450, 89 223 M 205 223 C 205 223.550, 207.025 224, 209.500 224 C 211.975 224, 214 223.550, 214 223 C 214 222.450, 211.975 222, 209.500 222 C 207.025 222, 205 222.450, 205 223 M 218 223 C 218 223.550, 218.900 224, 220 224 C 221.100 224, 222 223.550, 222 223 C 222 222.450, 221.100 222, 220 222 C 218.900 222, 218 222.450, 218 223 M 103.589 256.077 C 102.165 257.769, 101 259.570, 101 260.080 C 101 260.589, 102.361 263.142, 104.025 265.753 L 107.050 270.500 106.827 261.750 C 106.705 256.938, 106.508 253, 106.391 253 C 106.274 253, 105.013 254.385, 103.589 256.077 M 191.615 255.465 C 189.815 258.212, 189.629 259, 190.781 259 C 191.210 259, 192.071 257.650, 192.694 256 C 194.070 252.355, 193.755 252.199, 191.615 255.465 M 197 253.711 C 197 254.285, 197.787 255.373, 198.750 256.128 C 200.369 257.397, 200.390 257.350, 199.033 255.500 C 198.226 254.400, 197.439 253.313, 197.283 253.083 C 197.127 252.854, 197 253.137, 197 253.711 M 109 263.196 L 109 270.392 112 265.661 C 115.522 260.108, 115.564 259.820, 113.171 257.655 C 109.769 254.576, 109 255.597, 109 263.196 M 192.090 259.390 C 191.314 260.325, 190.040 260.846, 189.258 260.546 C 188.290 260.174, 188.549 261.195, 190.073 263.750 C 193.935 270.229, 194.542 270.445, 194.206 265.219 C 193.712 257.546, 193.684 257.467, 192.090 259.390 M 196.747 263.780 C 196.474 266.926, 196.363 269.631, 196.500 269.791 C 197.009 270.387, 201.795 261.477, 201.351 260.759 C 201.097 260.347, 200.068 259.572, 199.066 259.035 C 197.422 258.155, 197.194 258.621, 196.747 263.780 M 97.620 264.458 C 95.901 267.081, 95.508 269.078, 96.750 268.882 C 99.217 268.492, 99.126 269.261, 96.500 271 L 93.500 272.987 99.809 272.993 C 104.594 272.998, 105.935 272.698, 105.362 271.750 C 104.946 271.063, 103.398 268.584, 101.922 266.243 L 99.239 261.986 97.620 264.458 M 185.722 263.956 C 185.427 265.082, 185.595 265.751, 186.093 265.442 C 187.455 264.601, 187.184 268.381, 185.750 270.225 C 185.063 271.108, 183.600 272.042, 182.500 272.300 C 181.400 272.557, 183.313 272.820, 186.750 272.884 C 190.188 272.948, 193 272.757, 193 272.461 C 193 272.164, 191.483 269.668, 189.629 266.915 C 186.744 262.631, 186.180 262.204, 185.722 263.956 M 114.615 265.500 C 113.727 266.875, 112.273 269.125, 111.385 270.500 L 109.770 273 115.135 272.864 C 118.086 272.789, 119.461 272.529, 118.192 272.287 C 116.334 271.932, 116.112 271.570, 117.054 270.436 C 117.697 269.660, 117.954 268.321, 117.623 267.461 C 117.293 266.600, 117.426 266.145, 117.918 266.449 C 118.411 266.754, 118.578 266.102, 118.290 265.001 C 117.594 262.339, 116.567 262.478, 114.615 265.500 M 199.760 269.038 L 197.019 273 203.760 272.900 C 208.655 272.828, 209.816 272.582, 208 272 C 206.625 271.560, 205.950 271.126, 206.500 271.036 C 207.050 270.947, 206.436 270.447, 205.136 269.927 C 203.434 269.245, 202.918 268.423, 203.292 266.990 C 204.096 263.916, 202.770 264.685, 199.760 269.038 M 94.131 282 L 94.046 288 100.523 288 L 107 288 107 282 L 107 276 100.607 276 L 94.215 276 94.131 282 M 109 282 L 109 288 115.500 288 C 120.900 288, 122 287.718, 122 286.333 C 122 285.417, 121.715 284.951, 121.367 285.299 C 121.019 285.647, 119.858 284.818, 118.787 283.457 C 117.716 282.095, 116.383 281.264, 115.824 281.609 C 115.245 281.967, 114.957 281.471, 115.154 280.457 C 115.344 279.478, 117.075 278.109, 119 277.415 C 122.448 276.171, 122.400 276.151, 115.750 276.076 L 109 276 109 282 M 181.015 277.895 C 181.024 278.821, 181.341 279.077, 181.765 278.500 C 182.169 277.950, 183.080 277.382, 183.789 277.237 C 185.393 276.910, 184.693 284.460, 182.922 286.594 C 181.941 287.776, 182.731 288, 187.878 288 L 194 288 194 281.966 L 194 275.932 187.500 276.111 C 182.267 276.255, 181.003 276.603, 181.015 277.895 M 196.840 282.026 L 197.180 288.055 203.090 287.878 L 209 287.701 209.014 284.100 C 209.021 282.120, 209.299 279.488, 209.630 278.250 C 210.213 276.077, 209.999 276, 203.367 275.998 L 196.500 275.996 196.840 282.026 M 205.851 278.251 C 206.608 279.008, 207.337 279.063, 207.988 278.412 C 208.639 277.761, 208.247 277.369, 206.839 277.263 C 205.229 277.142, 204.985 277.385, 205.851 278.251 M 103.553 281.915 C 103.231 282.436, 103.394 283.125, 103.915 283.447 C 104.436 283.769, 105.125 283.606, 105.447 283.085 C 105.769 282.564, 105.606 281.875, 105.085 281.553 C 104.564 281.231, 103.875 281.394, 103.553 281.915 M 110.469 282.050 C 109.519 283.588, 110.820 284.580, 112.104 283.296 C 112.822 282.578, 112.839 282.019, 112.156 281.597 C 111.596 281.251, 110.837 281.455, 110.469 282.050 M 191 282.500 C 191 283.325, 191.450 284, 192 284 C 192.550 284, 193 283.325, 193 282.500 C 193 281.675, 192.550 281, 192 281 C 191.450 281, 191 281.675, 191 282.500 M 198 282.441 C 198 283.298, 198.450 284, 199 284 C 199.550 284, 200 283.577, 200 283.059 C 200 282.541, 199.550 281.840, 199 281.500 C 198.450 281.160, 198 281.584, 198 282.441 M 205 282.378 C 205 283.135, 205.675 284.315, 206.500 285 C 208.090 286.320, 208.452 285.341, 207.393 282.582 C 206.646 280.636, 205 280.495, 205 282.378 M 99.750 290.800 C 94.145 291.092, 94 291.173, 94 293.991 C 94 295.581, 94.450 297.160, 95 297.500 C 95.550 297.840, 96 298.991, 96 300.059 C 96 301.127, 95.550 302, 95 302 C 94.450 302, 94 302.450, 94 303 C 94 303.564, 96.833 304, 100.500 304 L 107 304 107 297.559 C 107 294.016, 106.662 290.979, 106.250 290.809 C 105.838 290.639, 102.912 290.635, 99.750 290.800 M 109.413 290.917 C 109.186 291.146, 109 294.183, 109 297.667 L 109 304 115.500 304 L 122 304 122 297.589 L 122 291.178 115.913 290.839 C 112.566 290.652, 109.641 290.688, 109.413 290.917 M 187.500 290.913 C 182.083 291.549, 182.046 291.598, 181.244 299.250 L 180.746 304 187.373 304 L 194 304 194 297 C 194 293.150, 193.662 290.073, 193.250 290.163 C 192.838 290.253, 190.250 290.590, 187.500 290.913 M 196.998 297.250 L 197 304 203.500 304 C 207.585 304, 210 303.589, 210 302.893 C 210 302.284, 209.325 302.045, 208.500 302.362 C 207.675 302.678, 207 302.515, 207 302 C 207 301.485, 206.213 301.316, 205.250 301.626 C 203.904 302.059, 203.816 301.963, 204.870 301.211 C 205.662 300.646, 206.215 298.527, 206.183 296.178 C 206.141 293.166, 206.561 292.021, 207.814 291.729 C 208.741 291.512, 206.687 291.147, 203.248 290.918 L 196.996 290.500 196.998 297.250 M 103.583 296.866 C 103.152 297.563, 103.070 298.403, 103.400 298.733 C 104.295 299.628, 105.271 298.312, 104.787 296.862 C 104.449 295.846, 104.213 295.846, 103.583 296.866 M 111 297.441 C 111 298.298, 111.450 299, 112 299 C 112.550 299, 113 298.577, 113 298.059 C 113 297.541, 112.550 296.840, 112 296.500 C 111.450 296.160, 111 296.584, 111 297.441 M 190.597 296.844 C 190.251 297.404, 190.455 298.163, 191.050 298.531 C 192.588 299.481, 193.580 298.180, 192.296 296.896 C 191.578 296.178, 191.019 296.161, 190.597 296.844 M 198.639 296.694 C 197.513 297.820, 197.954 299, 199.500 299 C 200.325 299, 201 298.577, 201 298.059 C 201 296.798, 199.438 295.895, 198.639 296.694 M 99.750 306.739 C 94.039 307.097, 91.499 308.615, 96.736 308.539 C 98.988 308.507, 99.680 309.120, 100.644 312 C 101.577 314.788, 101.958 315.144, 102.515 313.750 C 103.554 311.149, 105.008 311.633, 104.771 314.500 C 104.570 316.929, 104.347 317, 96.982 317 C 89.587 317, 86.694 318.038, 87.589 320.372 C 87.894 321.169, 93.523 321.412, 106.760 321.202 C 127.654 320.870, 128.835 320.711, 126.990 318.488 C 126.177 317.508, 123.919 317, 120.378 317 C 116.124 317, 115 316.667, 115 315.406 C 115 314.530, 115.900 313.577, 117 313.290 C 118.100 313.002, 119 312.144, 119 311.383 C 119 310.623, 119.627 310, 120.393 310 C 121.159 310, 122.045 309.325, 122.362 308.500 C 122.834 307.270, 121.863 307, 116.969 307 C 113.686 307, 110.662 306.887, 110.250 306.750 C 109.838 306.613, 109.436 308.637, 109.357 311.250 C 109.279 313.863, 109.616 316, 110.107 316 C 110.598 316, 111 315.063, 111 313.917 C 111 311.905, 113.061 311.631, 113.671 313.563 C 114.230 315.332, 112.472 316.850, 109.487 317.175 L 106.500 317.500 106.806 311.750 C 106.975 308.587, 106.750 306.085, 106.306 306.189 C 105.863 306.293, 102.912 306.541, 99.750 306.739 M 196.999 312.250 C 197 316.695, 196.660 318, 195.500 318 C 194.348 318, 194 316.722, 194 312.500 L 194 307 187.250 307.030 C 182.176 307.053, 180.935 307.314, 182.250 308.080 C 183.213 308.641, 184 309.554, 184 310.109 C 184 310.664, 183.553 310.842, 183.007 310.504 C 182.433 310.150, 182.101 310.950, 182.221 312.398 C 182.335 313.777, 182.616 314.717, 182.846 314.488 C 183.075 314.258, 184.097 314.517, 185.117 315.063 C 186.795 315.961, 186.877 315.806, 185.978 313.442 C 185.220 311.449, 185.283 310.928, 186.242 311.247 C 186.934 311.478, 187.556 312.192, 187.625 312.833 C 187.694 313.475, 187.806 314.450, 187.875 315 C 188.111 316.889, 190 316, 190 314 C 190 312.900, 190.423 312, 190.941 312 C 192.609 312, 193.122 313.904, 192.011 315.979 C 190.814 318.215, 187.067 318.667, 185.200 316.800 C 184.320 315.920, 184 315.907, 184 316.754 C 184 317.485, 182.755 317.749, 180.606 317.474 C 176.645 316.967, 173.501 319.445, 176.064 321.053 C 176.854 321.549, 178.400 321.668, 179.500 321.317 C 180.600 320.966, 188.637 320.748, 197.359 320.831 C 206.081 320.915, 213.599 320.748, 214.065 320.460 C 214.531 320.172, 214.698 319.377, 214.436 318.694 C 214.138 317.918, 211.434 317.344, 207.230 317.164 C 200.520 316.876, 197.091 315.281, 198.451 313.080 C 199.397 311.549, 201.264 312.871, 200.600 314.601 C 200.304 315.371, 200.499 316, 201.031 316 C 201.564 316, 202 315.325, 202 314.500 C 202 313.667, 202.889 313, 204 313 C 205.259 313, 206 312.333, 206 311.200 C 206 310.210, 206.496 308.904, 207.102 308.298 C 207.904 307.496, 206.680 307.102, 202.600 306.848 L 196.997 306.500 196.999 312.250 M 235.987 310.108 C 234.189 310.609, 234.955 310.828, 238.750 310.900 C 241.637 310.955, 244 310.826, 244 310.613 C 244 309.802, 238.363 309.447, 235.987 310.108 M 272 310.063 C 272 310.578, 273.875 311, 276.167 311 C 281.102 311, 280.943 310.506, 275.750 309.704 C 273.673 309.384, 272 309.544, 272 310.063 M 235.250 312.662 C 232.983 313.577, 233.890 316, 236.500 316 C 238.333 316, 239 315.467, 239 314 C 239 312.056, 237.808 311.630, 235.250 312.662 M 241 314 C 241 315.467, 241.667 316, 243.500 316 C 245.333 316, 246 315.467, 246 314 C 246 312.533, 245.333 312, 243.500 312 C 241.667 312, 241 312.533, 241 314 M 269.529 312.805 C 267.977 314.357, 269.285 316, 272.073 316 C 274.462 316, 275.072 315.610, 274.810 314.250 C 274.496 312.619, 270.742 311.592, 269.529 312.805 M 276.500 312.834 C 274.943 314.390, 276.237 316.106, 278.750 315.816 C 282.060 315.436, 282.467 312.737, 279.250 312.500 C 278.012 312.409, 276.774 312.559, 276.500 312.834 M 231.195 317.500 C 231.215 319.150, 231.439 319.704, 231.693 318.731 C 231.947 317.758, 231.930 316.408, 231.656 315.731 C 231.382 315.054, 231.175 315.850, 231.195 317.500 M 265.651 317.468 C 265.341 318.275, 265.424 319.144, 265.836 319.399 C 266.248 319.653, 266.650 318.993, 266.730 317.931 C 266.903 315.634, 266.432 315.432, 265.651 317.468 M 248.252 320.500 C 248.263 322.700, 248.468 323.482, 248.707 322.238 C 248.946 320.994, 248.937 319.194, 248.687 318.238 C 248.437 317.282, 248.241 318.300, 248.252 320.500 M 234 320 C 234 321.467, 234.667 322, 236.500 322 C 238.333 322, 239 321.467, 239 320 C 239 318.533, 238.333 318, 236.500 318 C 234.667 318, 234 318.533, 234 320 M 241 320 C 241 321.467, 241.667 322, 243.500 322 C 245.333 322, 246 321.467, 246 320 C 246 318.533, 245.333 318, 243.500 318 C 241.667 318, 241 318.533, 241 320 M 269 320 C 269 321.556, 269.667 322, 272 322 C 274.333 322, 275 321.556, 275 320 C 275 318.444, 274.333 318, 272 318 C 269.667 318, 269 318.444, 269 320 M 276 320.066 C 276 321.729, 276.535 322.071, 278.741 321.816 C 280.395 321.626, 281.615 320.805, 281.815 319.750 C 282.073 318.391, 281.460 318, 279.073 318 C 276.634 318, 276 318.426, 276 320.066 M 234 324 C 234 324.550, 232.848 325, 231.441 325 C 230.034 325, 229.122 325.389, 229.416 325.863 C 230.172 327.087, 246.191 327.227, 248 326.027 C 249.286 325.173, 249.250 325.028, 247.750 325.015 C 246.787 325.007, 246 324.550, 246 324 C 246 322.551, 241.274 322.769, 240.583 324.250 C 240.117 325.250, 239.883 325.250, 239.417 324.250 C 238.726 322.769, 234 322.551, 234 324 M 269 324 C 269 324.550, 268.352 325, 267.559 325 C 266.766 325, 265.845 325.442, 265.511 325.982 C 264.886 326.994, 281.682 327.314, 283.288 326.322 C 284.542 325.547, 280.808 323.068, 278.333 323.032 C 277.142 323.014, 275.940 323.563, 275.662 324.250 C 275.259 325.250, 275.142 325.250, 275.079 324.250 C 274.986 322.771, 269 322.525, 269 324" stroke="none" fill="#89693a" fill-rule="evenodd"/></svg>